<?xml version="1.0" encoding="UTF-8" standalone="no"?>
<svg
   xmlns:dc="http://purl.org/dc/elements/1.1/"
   xmlns:cc="http://creativecommons.org/ns#"
   xmlns:rdf="http://www.w3.org/1999/02/22-rdf-syntax-ns#"
   xmlns:svg="http://www.w3.org/2000/svg"
   xmlns="http://www.w3.org/2000/svg"
   xmlns:sodipodi="http://sodipodi.sourceforge.net/DTD/sodipodi-0.dtd"
   xmlns:inkscape="http://www.inkscape.org/namespaces/inkscape"
   id="svg4"
   version="1.1"
   class="svg-inline--fa fa-vial fa-w-15 fa-3x"
   viewBox="0 0 512 512"
   role="img"
   data-icon="vial"
   data-prefix="fas"
   aria-hidden="true"
   sodipodi:docname="logo.svg"
   width="512"
   height="512"
   inkscape:version="0.92.3 (2405546, 2018-03-11)">
  <sodipodi:namedview
     pagecolor="#ffffff"
     bordercolor="#666666"
     borderopacity="1"
     objecttolerance="10"
     gridtolerance="10"
     guidetolerance="10"
     inkscape:pageopacity="0"
     inkscape:pageshadow="2"
     inkscape:window-width="1920"
     inkscape:window-height="1016"
     id="namedview6"
     showgrid="false"
     inkscape:zoom="0.4609375"
     inkscape:cx="130.44068"
     inkscape:cy="256"
     inkscape:window-x="1920"
     inkscape:window-y="27"
     inkscape:window-maximized="1"
     inkscape:current-layer="svg4" />
  <metadata
     id="metadata10">
    <rdf:RDF>
      <cc:Work
         rdf:about="">
        <dc:format>image/svg+xml</dc:format>
        <dc:type
           rdf:resource="http://purl.org/dc/dcmitype/StillImage" />
        <dc:title></dc:title>
      </cc:Work>
    </rdf:RDF>
  </metadata>
  <defs
     id="defs8" />
  <path
     style="fill:#dddddd;fill-opacity:1"
     id="path2"
     class=""
     d="m 493.66065,186.1 -168.2,-167.8 c -3.1,-3.1 -8.2,-3.1 -11.3,0 l -34,33.9 c -3.1,3.1 -3.1,8.2 0,11.3 l 11.2,11.1 -242.399998,241.9 c -38.8,38.7 -45.0999995,102 -9.4,143.5 20.6,24 49.5,36 78.399998,35.9 26.4,0 52.8,-10 72.9,-30.1 l 246.3,-245.7 11.2,11.1 c 3.1,3.1 8.2,3.1 11.3,0 l 34,-33.9 c 3.1,-3 3.1,-8.1 0,-11.2 z m -159.7,69.9 h -157 l 148,-147.7 78.5,78.3 z"
     inkscape:connector-curvature="0" />
</svg>
